<?xml version="1.0" encoding="utf-8"?>
<!-- Generator: Adobe Illustrator 21.0.0, SVG Export Plug-In . SVG Version: 6.00 Build 0)  -->
<svg version="1.1" id="图层_1" xmlns="http://www.w3.org/2000/svg" xmlns:xlink="http://www.w3.org/1999/xlink" x="0px" y="0px"
	 viewBox="0 0 200 60" style="enable-background:new 0 0 200 60;" xml:space="preserve">
<style type="text/css">
	.st0{fill-rule:evenodd;clip-rule:evenodd;fill:#FFFFFF;}
</style>
<path class="st0" d="M38.6,3.5c-6.6,0-12.9,2.5-17.8,6.9c-4.8,4.4-7.8,10.5-8.4,17l14.1,5.8c1.2-0.8,2.7-1.3,4.2-1.3h0.4l6.3-9v-0.1
	c0-1.9,0.6-3.8,1.7-5.4c1.1-1.6,2.6-2.9,4.4-3.6c1.8-0.7,3.8-0.9,5.7-0.5c1.9,0.4,3.7,1.3,5.1,2.7c1.4,1.4,2.3,3.1,2.7,5
	c0.4,1.9,0.2,3.9-0.6,5.7c-0.8,1.8-2,3.3-3.6,4.4c-1.6,1.1-3.5,1.6-5.5,1.6h-0.2l-8.9,6.3v0.3c0,1.8-0.7,3.6-1.9,4.9
	c-1.2,1.4-2.9,2.2-4.8,2.4c-1.8,0.2-3.7-0.3-5.2-1.4c-1.5-1.1-2.5-2.7-2.9-4.5l-10-4.1c1.3,4.7,3.9,8.8,7.5,12.1
	C24.6,52,29,54.2,33.8,55c4.8,0.9,9.7,0.4,14.3-1.3c4.6-1.7,8.5-4.7,11.5-8.6c2.9-3.9,4.7-8.4,5.2-13.3c0.5-4.8-0.5-9.7-2.6-14
	c-2.2-4.3-5.5-8-9.7-10.5C48.3,4.9,43.5,3.5,38.6,3.5L38.6,3.5z M28.9,42.9l-3.2-1.3c0.5,1,1.2,1.8,2.1,2.3c0.9,0.6,2,0.8,3.1,0.8
	c1.1,0,2.1-0.4,3-1c0.9-0.6,1.6-1.5,2-2.5c0.4-1,0.5-2.1,0.3-3.1c-0.2-1.1-0.7-2-1.5-2.8c-0.8-0.8-1.7-1.3-2.8-1.5
	c-1.1-0.2-2.2-0.2-3.2,0.2l3.3,1.4c1,0.4,1.8,1.2,2.2,2.2c0.4,1,0.4,2.1,0,3.1c-0.4,1-1.2,1.8-2.2,2.2
	C31.1,43.3,29.9,43.3,28.9,42.9 M52.8,19.1c0.7,1.1,1.1,2.3,1.1,3.6c0,1.7-0.7,3.4-1.9,4.6c-1.2,1.2-2.9,1.9-4.7,1.9
	c-1.3,0-2.6-0.4-3.7-1.1c-1.1-0.7-1.9-1.7-2.4-2.9c-0.5-1.2-0.6-2.5-0.4-3.8c0.3-1.3,0.9-2.4,1.8-3.3c0.9-0.9,2.1-1.5,3.4-1.8
	c1.3-0.3,2.6-0.1,3.8,0.4C51.1,17.2,52.1,18.1,52.8,19.1 M43.2,20.1c-0.5,0.8-0.8,1.8-0.8,2.7l0,0c0,0.6,0.1,1.3,0.4,1.9
	c0.3,0.6,0.6,1.1,1.1,1.6c0.5,0.5,1,0.8,1.6,1.1c0.6,0.2,1.3,0.4,1.9,0.4c1,0,1.9-0.3,2.8-0.8c0.8-0.5,1.4-1.3,1.8-2.2
	c0.4-0.9,0.5-1.9,0.3-2.8c-0.2-0.9-0.7-1.8-1.4-2.5c-0.7-0.7-1.6-1.2-2.5-1.3c-1-0.2-2-0.1-2.9,0.3C44.5,18.6,43.8,19.2,43.2,20.1
	 M92.9,21.3l-1.8,3.1c-1.4-0.9-3.1-1.5-4.8-1.5c-1.8,0-3,0.7-3,2.1c0,1.4,1.4,1.9,3.7,2.6c0.4,0.1,0.8,0.3,1.3,0.4
	c3.2,1.1,5.1,2.4,5.1,5.4c0,4-3.2,6.2-7.7,6.2c-2.4,0-4.8-0.6-6.9-1.8l1.3-3.4c1.7,0.9,3.6,1.4,5.5,1.4c2.4,0,3.6-0.9,3.6-2.2
	c0-1.4-1.5-1.9-3.9-2.7h0h0c-0.2-0.1-0.4-0.1-0.6-0.2c-3.2-1.1-5.4-2.4-5.4-5.7c0-3.6,3-5.7,7.2-5.7C88.6,19.3,90.9,20,92.9,21.3
	 M106.6,39.3V23.2h6v-3.5H96.5v3.5h6v16.1H106.6z M121.3,23.2v4.4h7.9v3.5h-7.9v4.6h9.2v3.5h-13.3V19.7h13.3v3.5H121.3z M138.4,39.3
	l1.3-3.8l7.7,0l1.3,3.8h4.5l-7.6-19.6h-4.1l-7.4,19.6H138.4z M140.9,32.2l2.7-7.8l2.8,7.8H140.9z M174.5,27.3l-5.4,11.4h-2.3
	l-5.3-11.3v11.9h-4V19.7h4l6.6,14.1l6.4-14.1h4v19.6h-4V27.3z M186,23.7c0.3-0.4,0.5-1,0.5-1.5c0-0.4-0.1-0.7-0.2-1.1
	c-0.1-0.3-0.3-0.6-0.6-0.9c-0.3-0.3-0.6-0.5-0.9-0.6c-0.3-0.1-0.7-0.2-1.1-0.2c-0.5,0-1.1,0.2-1.5,0.5c-0.5,0.3-0.8,0.7-1,1.2
	c-0.2,0.5-0.3,1-0.2,1.6c0.1,0.5,0.4,1,0.7,1.4c0.4,0.4,0.9,0.6,1.4,0.7c0.5,0.1,1.1,0.1,1.6-0.2C185.3,24.5,185.7,24.1,186,23.7
	 M181.9,23.4c-0.3-0.4-0.4-0.8-0.4-1.2c0-0.3,0-0.6,0.1-0.9c0.1-0.3,0.3-0.5,0.5-0.8c0.2-0.2,0.5-0.4,0.8-0.5
	c0.3-0.1,0.6-0.2,0.9-0.2c0.4,0,0.9,0.1,1.3,0.4c0.4,0.2,0.7,0.6,0.8,1c0.2,0.4,0.2,0.9,0.1,1.3c-0.1,0.4-0.3,0.8-0.6,1.2
	c-0.3,0.3-0.7,0.5-1.2,0.6c-0.4,0.1-0.9,0-1.3-0.1C182.5,24.1,182.1,23.8,181.9,23.4 M184.7,21.5c0-0.4-0.2-0.8-0.9-0.8l-1,0v2.7
	h0.4v-1h0.6l0.5,1h0.5l-0.6-1.2c0.1-0.1,0.3-0.2,0.4-0.3C184.7,21.8,184.7,21.7,184.7,21.5 M183.8,22h-0.5l0-0.8h0.5
	c0.4,0,0.5,0.2,0.5,0.4c0,0.1,0,0.1,0,0.2c0,0.1-0.1,0.1-0.1,0.1c0,0-0.1,0.1-0.2,0.1C183.9,22,183.8,22,183.8,22"/>
</svg>
